<svg width="64" height="64" viewBox="0 0 64 64" xmlns="http://www.w3.org/2000/svg">
  <defs>
    <linearGradient id="debianGradient" x1="0%" y1="0%" x2="100%" y2="100%">
      <stop offset="0%" style="stop-color:#A80030;stop-opacity:1" />
      <stop offset="100%" style="stop-color:#D70A53;stop-opacity:1" />
    </linearGradient>
  </defs>
  <circle cx="32" cy="32" r="30" fill="url(#debianGradient)" stroke="#8B0026" stroke-width="2"/>
  <path d="M32 12 C20 12 12 20 12 32 C12 44 20 52 32 52 C44 52 52 44 52 32 C52 20 44 12 32 12 Z M32 18 C38 18 42 22 42 28 C42 34 38 38 32 38 C26 38 22 34 22 28 C22 22 26 18 32 18 Z" fill="white" opacity="0.9"/>
  <path d="M25 28 L39 28 M32 21 L32 35" stroke="white" stroke-width="3" stroke-linecap="round"/>
  <text x="32" y="48" font-family="Arial, sans-serif" font-size="8" fill="white" text-anchor="middle" font-weight="bold">DEBIAN</text>
</svg>