<svg width="200" height="200" viewBox="0 0 200 200" xmlns="http://www.w3.org/2000/svg">
  <defs>
    <linearGradient id="debianWatermarkGradient" x1="0%" y1="0%" x2="100%" y2="100%">
      <stop offset="0%" style="stop-color:#A80030;stop-opacity:0.08" />
      <stop offset="100%" style="stop-color:#D70A53;stop-opacity:0.08" />
    </linearGradient>
  </defs>
  <circle cx="100" cy="100" r="90" fill="url(#debianWatermarkGradient)" stroke="#8B0026" stroke-width="1" opacity="0.1"/>
  <path d="M100 40 C60 40 40 60 40 100 C40 140 60 160 100 160 C140 160 160 140 160 100 C160 60 140 40 100 40 Z M100 60 C120 60 130 70 130 85 C130 100 120 110 100 110 C80 110 70 100 70 85 C70 70 80 60 100 60 Z" fill="white" opacity="0.05"/>
  <path d="M75 85 L125 85 M100 60 L100 110" stroke="white" stroke-width="5" stroke-linecap="round" opacity="0.05"/>
  <text x="100" y="150" font-family="Arial, sans-serif" font-size="20" fill="white" text-anchor="middle" font-weight="bold" opacity="0.08">DEBIAN</text>
</svg>
