<svg width="64" height="64" viewBox="0 0 64 64" xmlns="http://www.w3.org/2000/svg">
  <defs>
    <linearGradient id="redhatGradient" x1="0%" y1="0%" x2="100%" y2="100%">
      <stop offset="0%" style="stop-color:#CC0000;stop-opacity:1" />
      <stop offset="100%" style="stop-color:#990000;stop-opacity:1" />
    </linearGradient>
  </defs>
  <circle cx="32" cy="32" r="30" fill="url(#redhatGradient)" stroke="#990000" stroke-width="2"/>
  <path d="M20 25 Q20 20 25 20 L39 20 Q44 20 44 25 L44 35 Q44 40 39 40 L25 40 Q20 40 20 35 Z" fill="white" opacity="0.9"/>
  <path d="M25 24 Q25 22 27 22 L37 22 Q39 22 39 24 L39 36 Q39 38 37 38 L27 38 Q25 38 25 36 Z" fill="#CC0000"/>
  <circle cx="32" cy="30" r="8" fill="white"/>
  <path d="M28 30 L36 30 M32 26 L32 34" stroke="#CC0000" stroke-width="2" stroke-linecap="round"/>
  <text x="32" y="48" font-family="Arial, sans-serif" font-size="6" fill="white" text-anchor="middle" font-weight="bold">RED HAT</text>
</svg>