<svg width="200" height="200" viewBox="0 0 200 200" xmlns="http://www.w3.org/2000/svg">
  <defs>
    <linearGradient id="redhatWatermarkGradient" x1="0%" y1="0%" x2="100%" y2="100%">
      <stop offset="0%" style="stop-color:#EE0000;stop-opacity:0.08" />
      <stop offset="100%" style="stop-color:#CC0000;stop-opacity:0.08" />
    </linearGradient>
  </defs>
  <circle cx="100" cy="100" r="90" fill="url(#redhatWatermarkGradient)" stroke="#990000" stroke-width="1" opacity="0.1"/>
  <path d="M60 75 Q60 60 75 60 L125 60 Q140 60 140 75 L140 125 Q140 140 125 140 L75 140 Q60 140 60 125 Z" fill="white" opacity="0.05"/>
  <path d="M75 70 Q75 65 80 65 L120 65 Q125 65 125 70 L125 130 Q125 135 120 135 L80 135 Q75 135 75 130 Z" fill="#EE0000" opacity="0.05"/>
  <circle cx="100" cy="100" r="25" fill="white" opacity="0.05"/>
  <path d="M85 100 L115 100 M100 85 L100 115" stroke="#EE0000" stroke-width="5" stroke-linecap="round" opacity="0.05"/>
  <text x="100" y="150" font-family="Arial, sans-serif" font-size="16" fill="white" text-anchor="middle" font-weight="bold" opacity="0.08">RED HAT</text>
</svg>
